<?xml version="1.0" encoding="UTF-8"?>
<svg xmlns="http://www.w3.org/2000/svg" xmlns:xlink="http://www.w3.org/1999/xlink" width="59px" height="64px" viewBox="0 0 59 64" version="1.1">
<g id="surface1">
<path style=" stroke:none;fill-rule:nonzero;fill:rgb(8.627451%,8.627451%,8.627451%);fill-opacity:1;" d="M 10.628906 0 C 10.71875 0.0117188 10.792969 0.0390625 10.878906 0.0742188 C 10.890625 0.078125 10.90625 0.0859375 10.921875 0.0898438 C 10.972656 0.109375 11.019531 0.132812 11.070312 0.152344 C 11.105469 0.164062 11.140625 0.179688 11.175781 0.191406 C 11.25 0.222656 11.320312 0.25 11.394531 0.28125 C 11.488281 0.316406 11.578125 0.355469 11.671875 0.390625 C 12.425781 0.691406 12.425781 0.691406 12.761719 0.847656 C 12.78125 0.855469 12.78125 0.855469 12.800781 0.867188 C 12.875 0.902344 12.949219 0.9375 13.023438 0.972656 C 13.046875 0.984375 13.066406 0.996094 13.089844 1.003906 C 13.144531 1.03125 13.203125 1.058594 13.257812 1.085938 C 13.289062 1.105469 13.324219 1.121094 13.355469 1.136719 C 13.597656 1.253906 13.839844 1.378906 14.078125 1.511719 C 14.128906 1.539062 14.183594 1.570312 14.238281 1.597656 C 14.460938 1.71875 14.683594 1.84375 14.902344 1.976562 C 14.941406 2 14.980469 2.023438 15.023438 2.046875 C 15.167969 2.132812 15.3125 2.222656 15.457031 2.3125 C 15.472656 2.320312 15.488281 2.332031 15.503906 2.339844 C 15.738281 2.488281 15.972656 2.640625 16.203125 2.796875 C 16.214844 2.804688 16.226562 2.8125 16.242188 2.820312 C 16.550781 3.027344 16.855469 3.238281 17.15625 3.457031 C 17.167969 3.464844 17.179688 3.472656 17.195312 3.484375 C 17.351562 3.601562 17.511719 3.71875 17.667969 3.839844 C 17.695312 3.859375 17.71875 3.878906 17.746094 3.898438 C 17.925781 4.035156 18.101562 4.175781 18.277344 4.320312 C 18.304688 4.34375 18.335938 4.367188 18.363281 4.390625 C 18.4375 4.449219 18.511719 4.511719 18.585938 4.574219 C 18.640625 4.621094 18.695312 4.667969 18.753906 4.714844 C 18.824219 4.769531 18.890625 4.832031 18.957031 4.890625 C 18.996094 4.925781 19.039062 4.960938 19.078125 4.992188 C 19.171875 5.070312 19.261719 5.152344 19.347656 5.234375 C 19.414062 5.296875 19.476562 5.355469 19.542969 5.410156 C 19.597656 5.460938 19.652344 5.507812 19.703125 5.558594 C 19.714844 5.570312 19.726562 5.578125 19.738281 5.589844 C 19.804688 5.652344 19.867188 5.714844 19.929688 5.777344 C 19.960938 5.808594 19.988281 5.832031 20.019531 5.859375 C 20.085938 5.917969 20.148438 5.976562 20.210938 6.039062 C 20.21875 6.050781 20.230469 6.058594 20.242188 6.070312 C 20.265625 6.09375 20.289062 6.117188 20.3125 6.140625 C 20.347656 6.175781 20.382812 6.210938 20.414062 6.246094 C 20.4375 6.265625 20.460938 6.289062 20.484375 6.3125 C 20.5 6.328125 20.5 6.328125 20.515625 6.34375 C 20.574219 6.402344 20.632812 6.464844 20.6875 6.53125 C 20.726562 6.574219 20.769531 6.617188 20.808594 6.65625 C 20.871094 6.714844 20.929688 6.777344 20.984375 6.84375 C 21.03125 6.894531 21.082031 6.945312 21.128906 6.996094 C 21.207031 7.078125 21.28125 7.164062 21.351562 7.253906 C 21.394531 7.304688 21.4375 7.351562 21.484375 7.398438 C 21.554688 7.476562 21.621094 7.554688 21.6875 7.636719 C 21.730469 7.6875 21.769531 7.734375 21.8125 7.785156 C 21.886719 7.871094 21.957031 7.957031 22.027344 8.046875 C 22.042969 8.0625 22.054688 8.082031 22.066406 8.097656 C 22.105469 8.144531 22.144531 8.191406 22.179688 8.242188 C 22.199219 8.261719 22.214844 8.285156 22.230469 8.304688 C 22.441406 8.570312 22.640625 8.84375 22.839844 9.121094 C 22.855469 9.140625 22.871094 9.164062 22.886719 9.183594 C 22.941406 9.261719 22.941406 9.261719 22.941406 9.296875 C 22.960938 9.292969 22.980469 9.289062 23 9.289062 C 24.273438 9.109375 25.546875 8.976562 28.378906 8.800781 C 28.40625 8.800781 28.4375 8.796875 28.464844 8.796875 C 28.644531 8.789062 28.824219 8.785156 29.003906 8.785156 C 29.027344 8.785156 29.027344 8.785156 29.054688 8.785156 C 30.277344 8.773438 31.5 8.824219 35.800781 9.257812 C 35.8125 9.257812 35.824219 9.261719 35.835938 9.261719 C 35.863281 9.265625 35.894531 9.269531 35.925781 9.273438 C 35.992188 9.28125 35.992188 9.28125 36.058594 9.28125 C 36.089844 9.242188 36.113281 9.210938 36.136719 9.171875 C 36.152344 9.148438 36.167969 9.125 36.183594 9.101562 C 36.191406 9.085938 36.199219 9.074219 36.207031 9.0625 C 36.25 9 36.296875 8.9375 36.339844 8.878906 C 36.351562 8.863281 36.359375 8.851562 36.371094 8.839844 C 36.597656 8.53125 36.832031 8.230469 37.074219 7.933594 C 37.097656 7.90625 37.117188 7.882812 37.136719 7.855469 C 37.226562 7.746094 37.320312 7.640625 37.410156 7.53125 C 37.4375 7.503906 37.460938 7.476562 37.484375 7.445312 C 37.578125 7.339844 37.667969 7.234375 37.765625 7.128906 C 37.796875 7.09375 37.828125 7.058594 37.859375 7.023438 C 37.929688 6.945312 38 6.871094 38.070312 6.792969 C 38.085938 6.777344 38.101562 6.757812 38.117188 6.742188 C 38.246094 6.605469 38.375 6.472656 38.503906 6.339844 C 38.5625 6.285156 38.613281 6.230469 38.664062 6.171875 C 38.710938 6.121094 38.757812 6.074219 38.808594 6.027344 C 38.921875 5.925781 39.027344 5.820312 39.132812 5.714844 C 39.203125 5.644531 39.269531 5.578125 39.34375 5.515625 C 39.402344 5.464844 39.457031 5.414062 39.511719 5.359375 C 39.589844 5.285156 39.667969 5.214844 39.75 5.144531 C 39.785156 5.113281 39.820312 5.082031 39.855469 5.050781 C 39.925781 4.988281 39.996094 4.925781 40.070312 4.867188 C 40.113281 4.832031 40.152344 4.796875 40.195312 4.761719 C 40.261719 4.699219 40.332031 4.640625 40.402344 4.582031 C 40.453125 4.542969 40.503906 4.5 40.550781 4.457031 C 40.632812 4.390625 40.714844 4.324219 40.796875 4.261719 C 40.871094 4.203125 40.941406 4.144531 41.011719 4.085938 C 41.101562 4.015625 41.1875 3.949219 41.277344 3.882812 C 41.335938 3.835938 41.394531 3.792969 41.453125 3.746094 C 41.589844 3.644531 41.726562 3.542969 41.863281 3.445312 C 41.898438 3.421875 41.929688 3.398438 41.960938 3.375 C 41.980469 3.359375 41.980469 3.359375 42 3.347656 C 42.023438 3.332031 42.046875 3.3125 42.066406 3.296875 C 42.523438 2.96875 42.992188 2.652344 43.472656 2.359375 C 43.511719 2.335938 43.554688 2.308594 43.59375 2.285156 C 43.832031 2.136719 44.070312 1.996094 44.3125 1.855469 C 44.335938 1.84375 44.335938 1.84375 44.363281 1.828125 C 44.554688 1.71875 44.746094 1.613281 44.941406 1.507812 C 45 1.476562 45.058594 1.445312 45.117188 1.410156 C 45.75 1.058594 46.40625 0.761719 47.078125 0.492188 C 47.160156 0.457031 47.238281 0.425781 47.320312 0.394531 C 47.433594 0.347656 47.546875 0.300781 47.664062 0.253906 C 47.726562 0.226562 47.792969 0.203125 47.855469 0.175781 C 47.917969 0.152344 47.980469 0.125 48.039062 0.101562 C 48.0625 0.09375 48.085938 0.0820312 48.109375 0.0742188 C 48.140625 0.0585938 48.171875 0.046875 48.203125 0.0351562 C 48.222656 0.0273438 48.238281 0.0195312 48.257812 0.0117188 C 48.308594 0 48.335938 -0.00390625 48.386719 0.015625 C 48.410156 0.0507812 48.410156 0.0507812 48.425781 0.101562 C 48.433594 0.128906 48.433594 0.128906 48.445312 0.15625 C 48.453125 0.179688 48.460938 0.199219 48.464844 0.21875 C 48.472656 0.242188 48.480469 0.261719 48.488281 0.285156 C 48.507812 0.339844 48.527344 0.398438 48.546875 0.457031 C 48.566406 0.515625 48.589844 0.574219 48.609375 0.636719 C 48.640625 0.71875 48.667969 0.804688 48.695312 0.886719 C 48.757812 1.058594 48.816406 1.230469 48.878906 1.402344 C 48.988281 1.703125 49.09375 2.007812 49.191406 2.316406 C 49.203125 2.351562 49.214844 2.390625 49.230469 2.425781 C 49.382812 2.898438 49.519531 3.375 49.652344 3.855469 C 49.660156 3.878906 49.660156 3.878906 49.664062 3.898438 C 49.792969 4.363281 49.902344 4.828125 50.003906 5.296875 C 50.007812 5.3125 50.011719 5.328125 50.015625 5.34375 C 50.378906 6.972656 50.59375 8.636719 50.679688 10.304688 C 50.679688 10.320312 50.679688 10.335938 50.679688 10.351562 C 50.734375 11.382812 50.738281 12.425781 50.679688 13.457031 C 50.679688 13.472656 50.675781 13.492188 50.675781 13.511719 C 50.601562 14.8125 50.453125 16.105469 50.195312 17.382812 C 50.191406 17.402344 50.1875 17.421875 50.183594 17.441406 C 50.171875 17.496094 50.164062 17.554688 50.152344 17.613281 C 50.148438 17.632812 50.144531 17.648438 50.140625 17.667969 C 50.117188 17.769531 50.09375 17.867188 50.070312 17.964844 C 50.066406 17.976562 50.066406 17.988281 50.0625 17.996094 C 50.050781 18.046875 50.035156 18.097656 50.023438 18.148438 C 49.988281 18.269531 49.988281 18.359375 50.023438 18.480469 C 50.027344 18.503906 50.03125 18.53125 50.039062 18.554688 C 50.042969 18.582031 50.050781 18.609375 50.054688 18.632812 C 50.0625 18.664062 50.066406 18.691406 50.074219 18.722656 C 50.078125 18.746094 50.078125 18.746094 50.085938 18.769531 C 50.339844 19.941406 50.507812 21.125 50.617188 22.316406 C 50.617188 22.332031 50.621094 22.347656 50.621094 22.367188 C 50.621094 22.378906 50.625 22.394531 50.625 22.410156 C 50.625 22.421875 50.628906 22.433594 50.628906 22.449219 C 50.628906 22.472656 50.632812 22.5 50.632812 22.527344 C 53.394531 22.527344 56.15625 22.527344 59 22.527344 C 59 24.734375 59 26.941406 59 29.214844 C 57.835938 29.222656 56.671875 29.226562 55.472656 29.230469 C 55.394531 29.601562 55.320312 29.96875 55.242188 30.351562 C 55.191406 30.585938 55.140625 30.820312 55.09375 31.058594 C 55.089844 31.070312 55.085938 31.085938 55.085938 31.101562 C 54.996094 31.535156 54.902344 31.96875 54.8125 32.402344 C 54.808594 32.414062 54.808594 32.425781 54.804688 32.4375 C 54.765625 32.625 54.726562 32.8125 54.6875 33 C 54.644531 33.203125 54.601562 33.40625 54.558594 33.609375 C 54.558594 33.621094 54.554688 33.632812 54.550781 33.648438 C 54.46875 34.050781 54.382812 34.453125 54.300781 34.855469 C 54.296875 34.871094 54.292969 34.882812 54.289062 34.898438 C 54.25 35.097656 54.207031 35.296875 54.167969 35.496094 C 53.992188 36.339844 53.8125 37.183594 53.636719 38.03125 C 53.597656 38.21875 53.558594 38.410156 53.515625 38.601562 C 53.511719 38.621094 53.511719 38.621094 53.507812 38.640625 C 53.425781 39.042969 53.339844 39.445312 53.257812 39.847656 C 53.253906 39.863281 53.25 39.875 53.25 39.890625 C 53.207031 40.089844 53.164062 40.289062 53.125 40.488281 C 52.949219 41.332031 52.773438 42.175781 52.59375 43.023438 C 52.554688 43.210938 52.515625 43.402344 52.476562 43.59375 C 52.472656 43.613281 52.472656 43.613281 52.46875 43.632812 C 52.382812 44.035156 52.296875 44.4375 52.214844 44.839844 C 52.210938 44.855469 52.210938 44.867188 52.207031 44.878906 C 52.164062 45.082031 52.125 45.28125 52.082031 45.480469 C 51.90625 46.324219 51.730469 47.167969 51.554688 48.015625 C 51.511719 48.203125 51.472656 48.394531 51.433594 48.585938 C 51.429688 48.605469 51.429688 48.605469 51.425781 48.625 C 51.339844 49.027344 51.257812 49.429688 51.171875 49.832031 C 51.167969 49.847656 51.167969 49.859375 51.164062 49.871094 C 51.121094 50.074219 51.082031 50.273438 51.039062 50.472656 C 50.863281 51.316406 50.6875 52.160156 50.511719 53.007812 C 50.472656 53.195312 50.429688 53.386719 50.390625 53.578125 C 50.386719 53.597656 50.386719 53.597656 50.382812 53.613281 C 50.296875 54.019531 50.214844 54.421875 50.128906 54.824219 C 50.128906 54.839844 50.125 54.851562 50.121094 54.863281 C 50.082031 55.066406 50.039062 55.265625 49.996094 55.464844 C 49.824219 56.296875 49.652344 57.128906 49.476562 57.960938 C 49.304688 58.78125 49.132812 59.605469 48.960938 60.429688 C 48.914062 60.652344 48.867188 60.875 48.820312 61.101562 C 48.820312 61.113281 48.816406 61.125 48.8125 61.140625 C 48.691406 61.722656 48.570312 62.300781 48.449219 62.882812 C 48.433594 62.972656 48.414062 63.058594 48.394531 63.144531 C 48.375 63.246094 48.351562 63.351562 48.332031 63.453125 C 48.320312 63.507812 48.308594 63.558594 48.296875 63.613281 C 48.285156 63.667969 48.273438 63.726562 48.261719 63.78125 C 48.257812 63.808594 48.257812 63.808594 48.25 63.832031 C 48.25 63.847656 48.246094 63.863281 48.242188 63.878906 C 48.238281 63.890625 48.238281 63.90625 48.234375 63.917969 C 48.226562 63.953125 48.226562 63.953125 48.210938 64 C 35.863281 64 23.511719 64 10.789062 64 C 10.148438 60.933594 9.511719 57.867188 5.160156 37.035156 C 5.15625 37.023438 5.15625 37.007812 5.152344 36.992188 C 5.144531 36.964844 5.140625 36.9375 5.132812 36.910156 C 5.121094 36.839844 5.105469 36.769531 5.089844 36.699219 C 5.066406 36.574219 5.039062 36.449219 5.011719 36.320312 C 4.996094 36.253906 4.984375 36.183594 4.96875 36.113281 C 4.964844 36.097656 4.960938 36.085938 4.960938 36.070312 C 4.917969 35.875 4.878906 35.679688 4.835938 35.484375 C 4.808594 35.355469 4.785156 35.230469 4.757812 35.105469 C 4.753906 35.089844 4.753906 35.078125 4.75 35.0625 C 4.667969 34.667969 4.585938 34.273438 4.503906 33.878906 C 4.464844 33.695312 4.425781 33.511719 4.386719 33.328125 C 4.359375 33.1875 4.328125 33.046875 4.300781 32.90625 C 4.265625 32.742188 4.230469 32.574219 4.195312 32.410156 C 4.191406 32.398438 4.191406 32.382812 4.1875 32.367188 C 4.101562 31.96875 4.019531 31.566406 3.933594 31.167969 C 3.914062 31.0625 3.890625 30.960938 3.871094 30.859375 C 3.863281 30.832031 3.859375 30.804688 3.851562 30.773438 C 3.84375 30.730469 3.835938 30.6875 3.824219 30.648438 C 3.792969 30.484375 3.757812 30.320312 3.722656 30.15625 C 3.699219 30.054688 3.679688 29.953125 3.65625 29.851562 C 3.644531 29.792969 3.632812 29.734375 3.621094 29.675781 C 3.609375 29.613281 3.59375 29.550781 3.582031 29.488281 C 3.578125 29.46875 3.574219 29.449219 3.570312 29.429688 C 3.566406 29.414062 3.5625 29.398438 3.558594 29.378906 C 3.554688 29.359375 3.554688 29.359375 3.550781 29.335938 C 3.542969 29.296875 3.542969 29.296875 3.542969 29.214844 C 2.375 29.214844 1.203125 29.214844 0 29.214844 C 0 27.007812 0 24.800781 0 22.527344 C 2.765625 22.527344 5.535156 22.527344 8.386719 22.527344 C 8.386719 22.464844 8.386719 22.402344 8.386719 22.335938 C 8.386719 22.28125 8.394531 22.226562 8.398438 22.171875 C 8.398438 22.15625 8.402344 22.144531 8.402344 22.128906 C 8.40625 22.078125 8.414062 22.027344 8.417969 21.976562 C 8.417969 21.960938 8.421875 21.941406 8.421875 21.921875 C 8.53125 20.824219 8.6875 19.722656 8.945312 18.648438 C 8.949219 18.628906 8.957031 18.609375 8.960938 18.589844 C 8.96875 18.554688 8.976562 18.519531 8.984375 18.488281 C 9.03125 18.3125 8.980469 18.160156 8.941406 17.988281 C 8.582031 16.496094 8.394531 14.945312 9.21875 4.367188 C 9.222656 4.351562 9.226562 4.335938 9.230469 4.320312 C 9.34375 3.867188 9.46875 3.421875 9.605469 2.976562 C 9.609375 2.960938 9.613281 2.945312 9.617188 2.929688 C 9.78125 2.390625 9.960938 1.859375 10.148438 1.328125 C 10.15625 1.304688 10.15625 1.304688 10.164062 1.28125 C 10.230469 1.101562 10.292969 0.917969 10.359375 0.738281 C 10.390625 0.652344 10.421875 0.5625 10.453125 0.476562 C 10.46875 0.433594 10.484375 0.390625 10.5 0.347656 C 10.511719 0.316406 10.519531 0.289062 10.53125 0.261719 C 10.542969 0.222656 10.558594 0.1875 10.570312 0.148438 C 10.574219 0.136719 10.578125 0.125 10.582031 0.113281 C 10.613281 0.0351562 10.613281 0.0351562 10.628906 0 Z M 10.628906 0 "/>
<path style=" stroke:none;fill-rule:nonzero;fill:rgb(99.607843%,99.607843%,99.607843%);fill-opacity:1;" d="M 8.402344 27.601562 C 22.332031 27.601562 36.261719 27.601562 50.613281 27.601562 C 50.578125 27.792969 50.542969 27.984375 50.5 28.171875 C 50.453125 28.371094 50.414062 28.570312 50.375 28.769531 C 50.332031 28.980469 50.289062 29.195312 50.242188 29.40625 C 50.203125 29.578125 50.167969 29.75 50.132812 29.921875 C 50.089844 30.132812 50.046875 30.34375 50 30.558594 C 49.960938 30.730469 49.925781 30.898438 49.894531 31.070312 C 49.851562 31.285156 49.808594 31.496094 49.757812 31.710938 C 49.722656 31.878906 49.6875 32.050781 49.652344 32.222656 C 49.609375 32.4375 49.566406 32.648438 49.519531 32.863281 C 49.480469 33.03125 49.445312 33.203125 49.414062 33.375 C 49.371094 33.589844 49.324219 33.800781 49.277344 34.011719 C 49.242188 34.183594 49.207031 34.355469 49.171875 34.527344 C 49.128906 34.742188 49.085938 34.953125 49.039062 35.164062 C 49 35.335938 48.964844 35.507812 48.929688 35.679688 C 48.890625 35.894531 48.84375 36.105469 48.796875 36.316406 C 48.757812 36.488281 48.726562 36.660156 48.691406 36.832031 C 48.648438 37.046875 48.605469 37.257812 48.558594 37.46875 C 48.519531 37.640625 48.484375 37.8125 48.449219 37.984375 C 48.410156 38.195312 48.363281 38.410156 48.316406 38.621094 C 48.277344 38.792969 48.242188 38.964844 48.210938 39.136719 C 48.167969 39.347656 48.125 39.5625 48.074219 39.773438 C 48.039062 39.945312 48.003906 40.117188 47.96875 40.289062 C 47.925781 40.5 47.882812 40.714844 47.835938 40.925781 C 47.796875 41.097656 47.761719 41.269531 47.730469 41.441406 C 47.6875 41.652344 47.640625 41.867188 47.59375 42.078125 C 47.558594 42.25 47.523438 42.421875 47.488281 42.59375 C 47.445312 42.804688 47.402344 43.015625 47.355469 43.230469 C 47.316406 43.402344 47.28125 43.570312 47.25 43.742188 C 47.207031 43.957031 47.160156 44.167969 47.113281 44.382812 C 47.078125 44.550781 47.042969 44.722656 47.007812 44.894531 C 46.964844 45.109375 46.921875 45.320312 46.875 45.535156 C 46.835938 45.703125 46.800781 45.875 46.765625 46.046875 C 46.726562 46.261719 46.679688 46.472656 46.632812 46.683594 C 46.59375 46.855469 46.5625 47.027344 46.527344 47.199219 C 46.484375 47.414062 46.441406 47.625 46.394531 47.835938 C 46.355469 48.007812 46.320312 48.179688 46.285156 48.351562 C 46.242188 48.566406 46.199219 48.777344 46.152344 48.988281 C 46.113281 49.160156 46.078125 49.332031 46.046875 49.503906 C 46.003906 49.71875 45.957031 49.929688 45.910156 50.140625 C 45.875 50.3125 45.839844 50.484375 45.804688 50.65625 C 45.761719 50.867188 45.71875 51.082031 45.671875 51.292969 C 45.632812 51.464844 45.597656 51.636719 45.566406 51.808594 C 45.523438 52.019531 45.476562 52.234375 45.429688 52.445312 C 45.394531 52.617188 45.359375 52.789062 45.324219 52.960938 C 45.28125 53.171875 45.238281 53.386719 45.191406 53.597656 C 45.152344 53.769531 45.117188 53.941406 45.082031 54.113281 C 45.042969 54.324219 44.996094 54.539062 44.949219 54.75 C 44.910156 54.921875 44.878906 55.09375 44.84375 55.265625 C 44.800781 55.476562 44.757812 55.691406 44.710938 55.902344 C 44.671875 56.074219 44.636719 56.246094 44.601562 56.414062 C 44.558594 56.628906 44.515625 56.839844 44.46875 57.054688 C 44.429688 57.222656 44.394531 57.394531 44.363281 57.566406 C 44.320312 57.785156 44.273438 58 44.226562 58.21875 C 44.1875 58.382812 44.152344 58.550781 44.121094 58.71875 C 44.113281 58.746094 44.113281 58.746094 44.109375 58.773438 C 44.101562 58.796875 44.101562 58.796875 44.097656 58.820312 C 44.089844 58.859375 44.082031 58.894531 44.074219 58.929688 C 34.453125 58.929688 24.835938 58.929688 14.925781 58.929688 C 14.875 58.667969 14.820312 58.410156 14.765625 58.144531 C 14.722656 57.953125 14.722656 57.953125 14.679688 57.757812 C 14.644531 57.597656 14.613281 57.433594 14.582031 57.269531 C 14.546875 57.09375 14.507812 56.914062 14.46875 56.734375 C 14.421875 56.53125 14.382812 56.324219 14.339844 56.117188 C 14.304688 55.941406 14.269531 55.761719 14.230469 55.585938 C 14.183594 55.378906 14.140625 55.171875 14.101562 54.964844 C 14.066406 54.789062 14.027344 54.609375 13.988281 54.433594 C 13.941406 54.226562 13.902344 54.019531 13.859375 53.816406 C 13.824219 53.636719 13.789062 53.457031 13.746094 53.28125 C 13.703125 53.074219 13.660156 52.867188 13.621094 52.664062 C 13.585938 52.484375 13.546875 52.304688 13.507812 52.128906 C 13.460938 51.921875 13.417969 51.71875 13.378906 51.511719 C 13.34375 51.332031 13.304688 51.152344 13.265625 50.976562 C 13.222656 50.769531 13.179688 50.566406 13.136719 50.359375 C 13.101562 50.179688 13.066406 50 13.027344 49.824219 C 12.980469 49.617188 12.9375 49.414062 12.898438 49.207031 C 12.863281 49.027344 12.824219 48.851562 12.785156 48.671875 C 12.742188 48.464844 12.699219 48.261719 12.65625 48.054688 C 12.621094 47.875 12.585938 47.699219 12.546875 47.519531 C 12.5 47.316406 12.457031 47.109375 12.417969 46.902344 C 12.382812 46.722656 12.34375 46.546875 12.304688 46.367188 C 12.257812 46.164062 12.21875 45.957031 12.175781 45.75 C 12.140625 45.570312 12.105469 45.394531 12.066406 45.214844 C 12.019531 45.011719 11.976562 44.804688 11.9375 44.597656 C 11.902344 44.421875 11.863281 44.242188 11.824219 44.0625 C 11.777344 43.859375 11.738281 43.652344 11.695312 43.445312 C 11.660156 43.269531 11.625 43.089844 11.582031 42.910156 C 11.539062 42.707031 11.496094 42.5 11.457031 42.292969 C 11.417969 42.117188 11.382812 41.9375 11.34375 41.761719 C 11.296875 41.554688 11.253906 41.347656 11.214844 41.144531 C 11.179688 40.964844 11.140625 40.785156 11.101562 40.609375 C 11.058594 40.402344 11.015625 40.195312 10.972656 39.992188 C 10.9375 39.8125 10.902344 39.632812 10.863281 39.457031 C 10.816406 39.25 10.773438 39.046875 10.734375 38.839844 C 10.699219 38.660156 10.660156 38.480469 10.621094 38.304688 C 10.574219 38.097656 10.535156 37.894531 10.492188 37.6875 C 10.457031 37.507812 10.421875 37.328125 10.382812 37.152344 C 10.335938 36.945312 10.292969 36.742188 10.253906 36.535156 C 10.21875 36.355469 10.179688 36.179688 10.140625 36 C 10.09375 35.792969 10.054688 35.589844 10.011719 35.382812 C 9.976562 35.203125 9.941406 35.027344 9.898438 34.847656 C 9.855469 34.644531 9.8125 34.4375 9.773438 34.230469 C 9.734375 34.050781 9.699219 33.875 9.660156 33.695312 C 9.613281 33.492188 9.570312 33.285156 9.53125 33.078125 C 9.496094 32.898438 9.457031 32.722656 9.417969 32.542969 C 9.375 32.339844 9.332031 32.132812 9.289062 31.925781 C 9.253906 31.746094 9.21875 31.570312 9.179688 31.390625 C 9.132812 31.1875 9.089844 30.980469 9.050781 30.773438 C 9.015625 30.597656 8.976562 30.417969 8.9375 30.238281 C 8.890625 30.035156 8.851562 29.828125 8.808594 29.621094 C 8.773438 29.445312 8.738281 29.265625 8.699219 29.089844 C 8.652344 28.882812 8.609375 28.675781 8.570312 28.472656 C 8.527344 28.257812 8.484375 28.046875 8.433594 27.835938 C 8.429688 27.816406 8.425781 27.796875 8.421875 27.777344 C 8.417969 27.761719 8.414062 27.742188 8.410156 27.726562 C 8.402344 27.679688 8.402344 27.679688 8.402344 27.601562 Z M 8.402344 27.601562 "/>
<path style=" stroke:none;fill-rule:nonzero;fill:rgb(99.607843%,99.607843%,99.607843%);fill-opacity:1;" d="M 10.628906 0 C 10.71875 0.0117188 10.792969 0.0390625 10.878906 0.0742188 C 10.890625 0.078125 10.90625 0.0859375 10.921875 0.0898438 C 10.972656 0.109375 11.019531 0.132812 11.070312 0.152344 C 11.105469 0.164062 11.140625 0.179688 11.175781 0.191406 C 11.25 0.222656 11.320312 0.25 11.394531 0.28125 C 11.488281 0.316406 11.578125 0.355469 11.671875 0.390625 C 12.425781 0.691406 12.425781 0.691406 12.761719 0.847656 C 12.78125 0.855469 12.78125 0.855469 12.800781 0.867188 C 12.875 0.902344 12.949219 0.9375 13.023438 0.972656 C 13.046875 0.984375 13.066406 0.996094 13.089844 1.003906 C 13.144531 1.03125 13.203125 1.058594 13.257812 1.085938 C 13.289062 1.105469 13.324219 1.121094 13.355469 1.136719 C 13.597656 1.253906 13.839844 1.378906 14.078125 1.511719 C 14.128906 1.539062 14.183594 1.570312 14.238281 1.597656 C 14.460938 1.71875 14.683594 1.84375 14.902344 1.976562 C 14.941406 2 14.980469 2.023438 15.023438 2.046875 C 15.167969 2.132812 15.3125 2.222656 15.457031 2.3125 C 15.472656 2.320312 15.488281 2.332031 15.503906 2.339844 C 15.738281 2.488281 15.972656 2.640625 16.203125 2.796875 C 16.214844 2.804688 16.226562 2.8125 16.242188 2.820312 C 16.550781 3.027344 16.855469 3.238281 17.15625 3.457031 C 17.167969 3.464844 17.179688 3.472656 17.195312 3.484375 C 17.351562 3.601562 17.511719 3.71875 17.667969 3.839844 C 17.695312 3.859375 17.71875 3.878906 17.746094 3.898438 C 17.925781 4.035156 18.101562 4.175781 18.277344 4.320312 C 18.304688 4.34375 18.335938 4.367188 18.363281 4.390625 C 18.4375 4.449219 18.511719 4.511719 18.585938 4.574219 C 18.640625 4.621094 18.695312 4.667969 18.753906 4.714844 C 18.824219 4.769531 18.890625 4.832031 18.957031 4.890625 C 18.996094 4.925781 19.039062 4.960938 19.078125 4.992188 C 19.171875 5.070312 19.261719 5.152344 19.347656 5.234375 C 19.414062 5.296875 19.476562 5.355469 19.542969 5.410156 C 19.597656 5.460938 19.652344 5.507812 19.703125 5.558594 C 19.714844 5.570312 19.726562 5.578125 19.738281 5.589844 C 19.804688 5.652344 19.867188 5.714844 19.929688 5.777344 C 19.960938 5.808594 19.988281 5.832031 20.019531 5.859375 C 20.085938 5.917969 20.148438 5.976562 20.210938 6.039062 C 20.21875 6.050781 20.230469 6.058594 20.242188 6.070312 C 20.265625 6.09375 20.289062 6.117188 20.3125 6.140625 C 20.347656 6.175781 20.382812 6.210938 20.414062 6.246094 C 20.4375 6.265625 20.460938 6.289062 20.484375 6.3125 C 20.5 6.328125 20.5 6.328125 20.515625 6.34375 C 20.574219 6.402344 20.632812 6.464844 20.6875 6.53125 C 20.726562 6.574219 20.769531 6.617188 20.808594 6.65625 C 20.871094 6.714844 20.929688 6.777344 20.984375 6.84375 C 21.03125 6.894531 21.082031 6.945312 21.128906 6.996094 C 21.207031 7.078125 21.28125 7.164062 21.351562 7.253906 C 21.394531 7.304688 21.4375 7.351562 21.484375 7.398438 C 21.554688 7.476562 21.621094 7.554688 21.6875 7.636719 C 21.730469 7.6875 21.769531 7.734375 21.8125 7.785156 C 21.886719 7.871094 21.957031 7.957031 22.027344 8.046875 C 22.042969 8.0625 22.054688 8.082031 22.066406 8.097656 C 22.105469 8.144531 22.144531 8.191406 22.179688 8.242188 C 22.199219 8.261719 22.214844 8.285156 22.230469 8.304688 C 22.441406 8.570312 22.640625 8.84375 22.839844 9.121094 C 22.855469 9.140625 22.871094 9.164062 22.886719 9.183594 C 22.941406 9.261719 22.941406 9.261719 22.941406 9.296875 C 22.960938 9.292969 22.980469 9.289062 23 9.289062 C 24.273438 9.109375 25.546875 8.976562 28.378906 8.800781 C 28.40625 8.800781 28.4375 8.796875 28.464844 8.796875 C 28.644531 8.789062 28.824219 8.785156 29.003906 8.785156 C 29.027344 8.785156 29.027344 8.785156 29.054688 8.785156 C 30.277344 8.773438 31.5 8.824219 35.800781 9.257812 C 35.8125 9.257812 35.824219 9.261719 35.835938 9.261719 C 35.863281 9.265625 35.894531 9.269531 35.925781 9.273438 C 35.992188 9.28125 35.992188 9.28125 36.058594 9.28125 C 36.089844 9.242188 36.113281 9.210938 36.136719 9.171875 C 36.152344 9.148438 36.167969 9.125 36.183594 9.101562 C 36.191406 9.085938 36.199219 9.074219 36.207031 9.0625 C 36.25 9 36.296875 8.9375 36.339844 8.878906 C 36.351562 8.863281 36.359375 8.851562 36.371094 8.839844 C 36.597656 8.53125 36.832031 8.230469 37.074219 7.933594 C 37.097656 7.90625 37.117188 7.882812 37.136719 7.855469 C 37.226562 7.746094 37.320312 7.640625 37.410156 7.53125 C 37.4375 7.503906 37.460938 7.476562 37.484375 7.445312 C 37.578125 7.339844 37.667969 7.234375 37.765625 7.128906 C 37.796875 7.09375 37.828125 7.058594 37.859375 7.023438 C 37.929688 6.945312 38 6.871094 38.070312 6.792969 C 38.085938 6.777344 38.101562 6.757812 38.117188 6.742188 C 38.246094 6.605469 38.375 6.472656 38.503906 6.339844 C 38.5625 6.285156 38.613281 6.230469 38.664062 6.171875 C 38.710938 6.121094 38.757812 6.074219 38.808594 6.027344 C 38.921875 5.925781 39.027344 5.820312 39.132812 5.714844 C 39.203125 5.644531 39.269531 5.578125 39.34375 5.515625 C 39.402344 5.464844 39.457031 5.414062 39.511719 5.359375 C 39.589844 5.285156 39.667969 5.214844 39.75 5.144531 C 39.785156 5.113281 39.820312 5.082031 39.855469 5.050781 C 39.925781 4.988281 39.996094 4.925781 40.070312 4.867188 C 40.113281 4.832031 40.152344 4.796875 40.195312 4.761719 C 40.261719 4.699219 40.332031 4.640625 40.402344 4.582031 C 40.453125 4.542969 40.503906 4.5 40.550781 4.457031 C 40.632812 4.390625 40.714844 4.324219 40.796875 4.261719 C 40.871094 4.203125 40.941406 4.144531 41.011719 4.085938 C 41.101562 4.015625 41.1875 3.949219 41.277344 3.882812 C 41.335938 3.835938 41.394531 3.792969 41.453125 3.746094 C 41.589844 3.644531 41.726562 3.542969 41.863281 3.445312 C 41.898438 3.421875 41.929688 3.398438 41.960938 3.375 C 41.980469 3.359375 41.980469 3.359375 42 3.347656 C 42.023438 3.332031 42.046875 3.3125 42.066406 3.296875 C 42.523438 2.96875 42.992188 2.652344 43.472656 2.359375 C 43.511719 2.335938 43.554688 2.308594 43.59375 2.285156 C 43.832031 2.136719 44.070312 1.996094 44.3125 1.855469 C 44.335938 1.84375 44.335938 1.84375 44.363281 1.828125 C 44.554688 1.71875 44.746094 1.613281 44.941406 1.507812 C 45 1.476562 45.058594 1.445312 45.117188 1.410156 C 45.75 1.058594 46.40625 0.761719 47.078125 0.492188 C 47.160156 0.457031 47.238281 0.425781 47.320312 0.394531 C 47.433594 0.347656 47.546875 0.300781 47.664062 0.253906 C 47.726562 0.226562 47.792969 0.203125 47.855469 0.175781 C 47.917969 0.152344 47.980469 0.125 48.039062 0.101562 C 48.0625 0.09375 48.085938 0.0820312 48.109375 0.0742188 C 48.140625 0.0585938 48.171875 0.046875 48.203125 0.0351562 C 48.222656 0.0273438 48.238281 0.0195312 48.257812 0.0117188 C 48.308594 0 48.335938 -0.00390625 48.386719 0.015625 C 48.410156 0.0507812 48.410156 0.0507812 48.425781 0.101562 C 48.433594 0.128906 48.433594 0.128906 48.445312 0.15625 C 48.453125 0.179688 48.460938 0.199219 48.464844 0.21875 C 48.472656 0.242188 48.480469 0.261719 48.488281 0.285156 C 48.507812 0.339844 48.527344 0.398438 48.546875 0.457031 C 48.566406 0.515625 48.589844 0.574219 48.609375 0.636719 C 48.640625 0.71875 48.667969 0.804688 48.695312 0.886719 C 48.757812 1.058594 48.816406 1.230469 48.878906 1.402344 C 48.988281 1.703125 49.09375 2.007812 49.191406 2.316406 C 49.203125 2.351562 49.214844 2.390625 49.230469 2.425781 C 49.382812 2.898438 49.519531 3.375 49.652344 3.855469 C 49.660156 3.878906 49.660156 3.878906 49.664062 3.898438 C 49.792969 4.363281 49.902344 4.828125 50.003906 5.296875 C 50.007812 5.3125 50.011719 5.328125 50.015625 5.34375 C 50.378906 6.972656 50.59375 8.636719 50.679688 10.304688 C 50.679688 10.320312 50.679688 10.335938 50.679688 10.351562 C 50.734375 11.382812 50.738281 12.425781 50.679688 13.457031 C 50.679688 13.472656 50.675781 13.492188 50.675781 13.511719 C 50.601562 14.8125 50.453125 16.105469 50.195312 17.382812 C 50.191406 17.402344 50.1875 17.421875 50.183594 17.441406 C 50.171875 17.496094 50.164062 17.554688 50.152344 17.613281 C 50.148438 17.632812 50.144531 17.648438 50.140625 17.667969 C 50.117188 17.769531 50.09375 17.867188 50.070312 17.964844 C 50.066406 17.976562 50.066406 17.988281 50.0625 17.996094 C 50.050781 18.046875 50.035156 18.097656 50.023438 18.148438 C 49.988281 18.269531 49.988281 18.359375 50.023438 18.480469 C 50.027344 18.503906 50.03125 18.53125 50.039062 18.554688 C 50.042969 18.582031 50.050781 18.609375 50.054688 18.632812 C 50.0625 18.664062 50.066406 18.691406 50.074219 18.722656 C 50.078125 18.746094 50.078125 18.746094 50.085938 18.769531 C 50.339844 19.941406 50.507812 21.125 50.617188 22.316406 C 50.617188 22.332031 50.621094 22.347656 50.621094 22.367188 C 50.621094 22.378906 50.625 22.394531 50.625 22.410156 C 50.625 22.421875 50.628906 22.433594 50.628906 22.449219 C 50.628906 22.472656 50.632812 22.5 50.632812 22.527344 C 53.394531 22.527344 56.15625 22.527344 59 22.527344 C 59 24.734375 59 26.941406 59 29.214844 C 57.835938 29.222656 56.671875 29.226562 55.472656 29.230469 C 55.394531 29.601562 55.320312 29.96875 55.242188 30.351562 C 55.191406 30.585938 55.140625 30.820312 55.09375 31.058594 C 55.089844 31.070312 55.085938 31.085938 55.085938 31.101562 C 54.996094 31.535156 54.902344 31.96875 54.8125 32.402344 C 54.808594 32.414062 54.808594 32.425781 54.804688 32.4375 C 54.765625 32.625 54.726562 32.8125 54.6875 33 C 54.644531 33.203125 54.601562 33.40625 54.558594 33.609375 C 54.558594 33.621094 54.554688 33.632812 54.550781 33.648438 C 54.46875 34.050781 54.382812 34.453125 54.300781 34.855469 C 54.296875 34.871094 54.292969 34.882812 54.289062 34.898438 C 54.25 35.097656 54.207031 35.296875 54.167969 35.496094 C 53.992188 36.339844 53.8125 37.183594 53.636719 38.03125 C 53.597656 38.21875 53.558594 38.410156 53.515625 38.601562 C 53.511719 38.621094 53.511719 38.621094 53.507812 38.640625 C 53.425781 39.042969 53.339844 39.445312 53.257812 39.847656 C 53.253906 39.863281 53.25 39.875 53.25 39.890625 C 53.207031 40.089844 53.164062 40.289062 53.125 40.488281 C 52.949219 41.332031 52.773438 42.175781 52.59375 43.023438 C 52.554688 43.210938 52.515625 43.402344 52.476562 43.59375 C 52.472656 43.613281 52.472656 43.613281 52.46875 43.632812 C 52.382812 44.035156 52.296875 44.4375 52.214844 44.839844 C 52.210938 44.855469 52.210938 44.867188 52.207031 44.878906 C 52.164062 45.082031 52.125 45.28125 52.082031 45.480469 C 51.90625 46.324219 51.730469 47.167969 51.554688 48.015625 C 51.511719 48.203125 51.472656 48.394531 51.433594 48.585938 C 51.429688 48.605469 51.429688 48.605469 51.425781 48.625 C 51.339844 49.027344 51.257812 49.429688 51.171875 49.832031 C 51.167969 49.847656 51.167969 49.859375 51.164062 49.871094 C 51.121094 50.074219 51.082031 50.273438 51.039062 50.472656 C 50.863281 51.316406 50.6875 52.160156 50.511719 53.007812 C 50.472656 53.195312 50.429688 53.386719 50.390625 53.578125 C 50.386719 53.597656 50.386719 53.597656 50.382812 53.613281 C 50.296875 54.019531 50.214844 54.421875 50.128906 54.824219 C 50.128906 54.839844 50.125 54.851562 50.121094 54.863281 C 50.082031 55.066406 50.039062 55.265625 49.996094 55.464844 C 49.824219 56.296875 49.652344 57.128906 49.476562 57.960938 C 49.304688 58.78125 49.132812 59.605469 48.960938 60.429688 C 48.914062 60.652344 48.867188 60.875 48.820312 61.101562 C 48.820312 61.113281 48.816406 61.125 48.8125 61.140625 C 48.691406 61.722656 48.570312 62.300781 48.449219 62.882812 C 48.433594 62.972656 48.414062 63.058594 48.394531 63.144531 C 48.375 63.246094 48.351562 63.351562 48.332031 63.453125 C 48.320312 63.507812 48.308594 63.558594 48.296875 63.613281 C 48.285156 63.667969 48.273438 63.726562 48.261719 63.78125 C 48.257812 63.808594 48.257812 63.808594 48.25 63.832031 C 48.25 63.847656 48.246094 63.863281 48.242188 63.878906 C 48.238281 63.890625 48.238281 63.90625 48.234375 63.917969 C 48.226562 63.953125 48.226562 63.953125 48.210938 64 C 35.863281 64 23.511719 64 10.789062 64 C 10.148438 60.933594 9.511719 57.867188 5.160156 37.035156 C 5.15625 37.023438 5.15625 37.007812 5.152344 36.992188 C 5.144531 36.964844 5.140625 36.9375 5.132812 36.910156 C 5.121094 36.839844 5.105469 36.769531 5.089844 36.699219 C 5.066406 36.574219 5.039062 36.449219 5.011719 36.320312 C 4.996094 36.253906 4.984375 36.183594 4.96875 36.113281 C 4.964844 36.097656 4.960938 36.085938 4.960938 36.070312 C 4.917969 35.875 4.878906 35.679688 4.835938 35.484375 C 4.808594 35.355469 4.785156 35.230469 4.757812 35.105469 C 4.753906 35.089844 4.753906 35.078125 4.75 35.0625 C 4.667969 34.667969 4.585938 34.273438 4.503906 33.878906 C 4.464844 33.695312 4.425781 33.511719 4.386719 33.328125 C 4.359375 33.1875 4.328125 33.046875 4.300781 32.90625 C 4.265625 32.742188 4.230469 32.574219 4.195312 32.410156 C 4.191406 32.398438 4.191406 32.382812 4.1875 32.367188 C 4.101562 31.96875 4.019531 31.566406 3.933594 31.167969 C 3.914062 31.0625 3.890625 30.960938 3.871094 30.859375 C 3.863281 30.832031 3.859375 30.804688 3.851562 30.773438 C 3.84375 30.730469 3.835938 30.6875 3.824219 30.648438 C 3.792969 30.484375 3.757812 30.320312 3.722656 30.15625 C 3.699219 30.054688 3.679688 29.953125 3.65625 29.851562 C 3.644531 29.792969 3.632812 29.734375 3.621094 29.675781 C 3.609375 29.613281 3.59375 29.550781 3.582031 29.488281 C 3.578125 29.46875 3.574219 29.449219 3.570312 29.429688 C 3.566406 29.414062 3.5625 29.398438 3.558594 29.378906 C 3.554688 29.359375 3.554688 29.359375 3.550781 29.335938 C 3.542969 29.296875 3.542969 29.296875 3.542969 29.214844 C 2.375 29.214844 1.203125 29.214844 0 29.214844 C 0 27.007812 0 24.800781 0 22.527344 C 2.765625 22.527344 5.535156 22.527344 8.386719 22.527344 C 8.386719 22.464844 8.386719 22.402344 8.386719 22.335938 C 8.386719 22.28125 8.394531 22.226562 8.398438 22.171875 C 8.398438 22.15625 8.402344 22.144531 8.402344 22.128906 C 8.40625 22.078125 8.414062 22.027344 8.417969 21.976562 C 8.417969 21.960938 8.421875 21.941406 8.421875 21.921875 C 8.53125 20.824219 8.6875 19.722656 8.945312 18.648438 C 8.949219 18.628906 8.957031 18.609375 8.960938 18.589844 C 8.96875 18.554688 8.976562 18.519531 8.984375 18.488281 C 9.03125 18.3125 8.980469 18.160156 8.941406 17.988281 C 8.582031 16.496094 8.394531 14.945312 9.21875 4.367188 C 9.222656 4.351562 9.226562 4.335938 9.230469 4.320312 C 9.34375 3.867188 9.46875 3.421875 9.605469 2.976562 C 9.609375 2.960938 9.613281 2.945312 9.617188 2.929688 C 9.78125 2.390625 9.960938 1.859375 10.148438 1.328125 C 10.15625 1.304688 10.15625 1.304688 10.164062 1.28125 C 10.230469 1.101562 10.292969 0.917969 10.359375 0.738281 C 10.390625 0.652344 10.421875 0.5625 10.453125 0.476562 C 10.46875 0.433594 10.484375 0.390625 10.5 0.347656 C 10.511719 0.316406 10.519531 0.289062 10.53125 0.261719 C 10.542969 0.222656 10.558594 0.1875 10.570312 0.148438 C 10.574219 0.136719 10.578125 0.125 10.582031 0.113281 C 10.613281 0.0351562 10.613281 0.0351562 10.628906 0 Z M 11.574219 2.097656 C 11.046875 3.621094 10.609375 5.171875 10.316406 6.921875 C 10.308594 6.960938 10.300781 7.003906 10.292969 7.042969 C 10.035156 8.578125 9.898438 10.132812 9.890625 12.335938 C 9.890625 12.351562 9.890625 12.363281 9.890625 12.378906 C 9.902344 13.890625 10.066406 15.410156 10.453125 17.425781 C 10.460938 17.460938 10.46875 17.496094 10.476562 17.535156 C 10.507812 17.675781 10.542969 17.8125 10.582031 17.953125 C 10.585938 17.972656 10.589844 17.992188 10.597656 18.011719 C 10.605469 18.046875 10.617188 18.082031 10.628906 18.117188 C 10.65625 18.21875 10.667969 18.296875 10.644531 18.398438 C 10.640625 18.417969 10.636719 18.4375 10.632812 18.457031 C 10.621094 18.519531 10.605469 18.578125 10.589844 18.636719 C 10.214844 20.214844 10.007812 21.820312 9.90625 23.441406 C 9.90625 23.460938 9.90625 23.460938 9.90625 23.484375 C 9.90625 23.496094 9.902344 23.511719 9.902344 23.523438 C 9.902344 23.535156 9.902344 23.546875 9.902344 23.558594 C 9.890625 23.75 9.890625 23.933594 9.890625 24.128906 C 7.15625 24.128906 4.421875 24.128906 1.601562 24.128906 C 1.601562 25.277344 1.601562 26.429688 1.601562 27.617188 C 2.671875 27.617188 3.742188 27.617188 4.84375 27.617188 C 4.847656 27.660156 4.851562 27.699219 4.859375 27.742188 C 4.863281 27.769531 4.867188 27.792969 4.871094 27.816406 C 4.875 27.828125 4.875 27.84375 4.878906 27.855469 C 4.882812 27.867188 4.882812 27.882812 4.886719 27.894531 C 4.890625 27.910156 4.894531 27.925781 4.894531 27.941406 C 4.90625 27.988281 4.914062 28.035156 4.925781 28.078125 C 4.925781 28.097656 4.929688 28.113281 4.933594 28.128906 C 4.976562 28.347656 5.023438 28.566406 5.074219 28.785156 C 5.113281 28.96875 5.148438 29.152344 5.1875 29.335938 C 5.222656 29.515625 5.257812 29.695312 5.296875 29.871094 C 5.34375 30.078125 5.386719 30.28125 5.425781 30.488281 C 5.460938 30.667969 5.5 30.847656 5.539062 31.023438 C 5.585938 31.230469 5.625 31.433594 5.667969 31.640625 C 5.703125 31.820312 5.738281 32 5.78125 32.175781 C 5.824219 32.382812 5.867188 32.585938 5.90625 32.792969 C 5.945312 32.972656 5.980469 33.148438 6.019531 33.328125 C 6.066406 33.535156 6.109375 33.738281 6.148438 33.945312 C 6.183594 34.125 6.222656 34.300781 6.261719 34.480469 C 6.304688 34.683594 6.347656 34.890625 6.390625 35.097656 C 6.425781 35.277344 6.460938 35.453125 6.5 35.632812 C 6.546875 35.835938 6.589844 36.042969 6.628906 36.25 C 6.664062 36.429688 6.703125 36.605469 6.742188 36.785156 C 6.789062 36.988281 6.828125 37.195312 6.871094 37.402344 C 6.90625 37.578125 6.941406 37.757812 6.980469 37.9375 C 7.027344 38.140625 7.070312 38.347656 7.109375 38.554688 C 7.144531 38.730469 7.183594 38.910156 7.222656 39.089844 C 7.269531 39.292969 7.308594 39.5 7.351562 39.707031 C 7.386719 39.882812 7.421875 40.0625 7.464844 40.238281 C 7.507812 40.445312 7.550781 40.652344 7.589844 40.855469 C 7.628906 41.035156 7.664062 41.214844 7.703125 41.390625 C 7.75 41.597656 7.792969 41.804688 7.832031 42.007812 C 7.867188 42.1875 7.90625 42.367188 7.945312 42.542969 C 7.988281 42.75 8.03125 42.953125 8.074219 43.160156 C 8.109375 43.339844 8.144531 43.519531 8.183594 43.695312 C 8.230469 43.902344 8.273438 44.105469 8.3125 44.3125 C 8.347656 44.492188 8.386719 44.671875 8.425781 44.847656 C 8.472656 45.054688 8.511719 45.257812 8.554688 45.464844 C 8.589844 45.644531 8.625 45.820312 8.664062 46 C 8.710938 46.207031 8.753906 46.410156 8.792969 46.617188 C 8.828125 46.796875 8.867188 46.972656 8.90625 47.152344 C 8.953125 47.355469 8.992188 47.5625 9.035156 47.769531 C 9.070312 47.949219 9.105469 48.125 9.148438 48.304688 C 9.191406 48.507812 9.234375 48.714844 9.273438 48.921875 C 9.308594 49.101562 9.347656 49.277344 9.386719 49.457031 C 9.433594 49.660156 9.476562 49.867188 9.515625 50.074219 C 9.550781 50.253906 9.589844 50.429688 9.628906 50.609375 C 9.671875 50.8125 9.714844 51.019531 9.757812 51.226562 C 9.792969 51.402344 9.828125 51.582031 9.867188 51.761719 C 9.914062 51.964844 9.957031 52.171875 9.996094 52.378906 C 10.03125 52.554688 10.070312 52.734375 10.109375 52.910156 C 10.15625 53.117188 10.195312 53.324219 10.238281 53.53125 C 10.273438 53.707031 10.308594 53.886719 10.347656 54.0625 C 10.394531 54.269531 10.4375 54.476562 10.476562 54.679688 C 10.511719 54.859375 10.550781 55.039062 10.589844 55.214844 C 10.636719 55.421875 10.675781 55.628906 10.71875 55.832031 C 10.753906 56.011719 10.789062 56.191406 10.828125 56.367188 C 10.875 56.574219 10.917969 56.777344 10.957031 56.984375 C 10.992188 57.164062 11.03125 57.34375 11.070312 57.519531 C 11.117188 57.726562 11.15625 57.929688 11.199219 58.136719 C 11.234375 58.316406 11.269531 58.496094 11.3125 58.671875 C 11.355469 58.878906 11.398438 59.082031 11.4375 59.289062 C 11.476562 59.46875 11.511719 59.644531 11.550781 59.824219 C 11.597656 60.027344 11.640625 60.234375 11.679688 60.441406 C 11.714844 60.621094 11.753906 60.796875 11.792969 60.976562 C 11.835938 61.167969 11.875 61.359375 11.914062 61.550781 C 11.953125 61.757812 11.996094 61.960938 12.039062 62.164062 C 12.042969 62.175781 12.042969 62.1875 12.046875 62.199219 C 12.066406 62.3125 12.066406 62.3125 12.105469 62.414062 C 23.589844 62.414062 35.078125 62.414062 46.910156 62.414062 C 46.960938 62.183594 47.007812 61.953125 47.054688 61.710938 C 47.113281 61.453125 47.113281 61.453125 47.140625 61.328125 C 47.175781 61.167969 47.207031 61.003906 47.242188 60.839844 C 47.28125 60.640625 47.320312 60.441406 47.367188 60.242188 C 47.402344 60.070312 47.4375 59.898438 47.472656 59.726562 C 47.515625 59.515625 47.558594 59.300781 47.605469 59.089844 C 47.644531 58.917969 47.679688 58.746094 47.714844 58.574219 C 47.753906 58.363281 47.800781 58.152344 47.847656 57.9375 C 47.886719 57.765625 47.917969 57.597656 47.953125 57.425781 C 47.996094 57.210938 48.039062 57 48.085938 56.785156 C 48.125 56.617188 48.160156 56.445312 48.195312 56.273438 C 48.234375 56.058594 48.28125 55.847656 48.328125 55.632812 C 48.367188 55.464844 48.402344 55.292969 48.433594 55.121094 C 48.476562 54.90625 48.519531 54.695312 48.570312 54.484375 C 48.605469 54.3125 48.640625 54.140625 48.675781 53.96875 C 48.71875 53.753906 48.761719 53.542969 48.808594 53.332031 C 48.847656 53.160156 48.882812 52.988281 48.914062 52.816406 C 48.957031 52.601562 49.003906 52.390625 49.050781 52.179688 C 49.085938 52.007812 49.121094 51.835938 49.15625 51.664062 C 49.199219 51.449219 49.242188 51.238281 49.289062 51.027344 C 49.328125 50.855469 49.363281 50.683594 49.394531 50.511719 C 49.4375 50.300781 49.484375 50.085938 49.53125 49.875 C 49.570312 49.703125 49.601562 49.53125 49.636719 49.359375 C 49.679688 49.148438 49.722656 48.933594 49.769531 48.722656 C 49.808594 48.550781 49.84375 48.378906 49.878906 48.207031 C 49.917969 47.996094 49.964844 47.78125 50.011719 47.570312 C 50.050781 47.398438 50.082031 47.226562 50.117188 47.054688 C 50.160156 46.84375 50.203125 46.628906 50.25 46.417969 C 50.289062 46.246094 50.324219 46.074219 50.359375 45.902344 C 50.402344 45.691406 50.445312 45.480469 50.492188 45.265625 C 50.53125 45.09375 50.566406 44.925781 50.597656 44.753906 C 50.640625 44.539062 50.6875 44.328125 50.734375 44.113281 C 50.769531 43.945312 50.804688 43.773438 50.839844 43.601562 C 50.882812 43.386719 50.925781 43.175781 50.972656 42.960938 C 51.011719 42.792969 51.046875 42.621094 51.078125 42.449219 C 51.121094 42.234375 51.167969 42.023438 51.214844 41.808594 C 51.25 41.640625 51.285156 41.46875 51.320312 41.296875 C 51.363281 41.082031 51.40625 40.871094 51.453125 40.660156 C 51.492188 40.488281 51.527344 40.316406 51.5625 40.144531 C 51.601562 39.929688 51.648438 39.71875 51.695312 39.507812 C 51.734375 39.335938 51.765625 39.164062 51.800781 38.992188 C 51.84375 38.777344 51.886719 38.566406 51.933594 38.355469 C 51.972656 38.183594 52.007812 38.011719 52.042969 37.839844 C 52.085938 37.625 52.128906 37.414062 52.175781 37.203125 C 52.214844 37.03125 52.25 36.859375 52.28125 36.6875 C 52.324219 36.476562 52.367188 36.261719 52.417969 36.050781 C 52.453125 35.878906 52.488281 35.707031 52.523438 35.535156 C 52.566406 35.324219 52.609375 35.109375 52.65625 34.898438 C 52.695312 34.726562 52.730469 34.554688 52.761719 34.382812 C 52.804688 34.171875 52.851562 33.957031 52.898438 33.746094 C 52.933594 33.574219 52.96875 33.402344 53.003906 33.230469 C 53.046875 33.019531 53.089844 32.804688 53.136719 32.59375 C 53.175781 32.421875 53.210938 32.25 53.246094 32.078125 C 53.285156 31.867188 53.332031 31.65625 53.378906 31.441406 C 53.417969 31.269531 53.449219 31.101562 53.484375 30.929688 C 53.527344 30.714844 53.570312 30.503906 53.617188 30.289062 C 53.65625 30.121094 53.691406 29.949219 53.726562 29.777344 C 53.765625 29.5625 53.8125 29.351562 53.859375 29.136719 C 53.898438 28.953125 53.9375 28.769531 53.972656 28.582031 C 54.003906 28.441406 54.03125 28.296875 54.0625 28.15625 C 54.066406 28.144531 54.066406 28.132812 54.070312 28.121094 C 54.082031 28.066406 54.09375 28.011719 54.105469 27.957031 C 54.113281 27.9375 54.117188 27.917969 54.121094 27.898438 C 54.125 27.882812 54.128906 27.867188 54.132812 27.847656 C 54.144531 27.773438 54.152344 27.695312 54.15625 27.617188 C 55.226562 27.617188 56.296875 27.617188 57.398438 27.617188 C 57.398438 26.464844 57.398438 25.3125 57.398438 24.128906 C 54.660156 24.128906 51.925781 24.128906 49.109375 24.128906 C 49.109375 23.980469 49.109375 23.832031 49.109375 23.679688 C 49.101562 23.558594 49.097656 23.4375 49.089844 23.316406 C 49.085938 23.292969 49.085938 23.292969 49.085938 23.269531 C 48.984375 21.699219 48.796875 20.117188 48.402344 18.59375 C 48.398438 18.574219 48.390625 18.554688 48.386719 18.535156 C 48.378906 18.503906 48.371094 18.472656 48.363281 18.441406 C 48.335938 18.335938 48.34375 18.261719 48.371094 18.160156 C 48.375 18.140625 48.378906 18.121094 48.386719 18.101562 C 48.398438 18.054688 48.410156 18.007812 48.421875 17.960938 C 48.792969 16.574219 48.972656 15.125 49.054688 13.695312 C 49.058594 13.632812 49.0625 13.566406 49.066406 13.503906 C 49.070312 13.457031 49.074219 13.410156 49.074219 13.363281 C 49.078125 13.332031 49.078125 13.300781 49.082031 13.273438 C 49.109375 12.816406 49.109375 12.359375 49.109375 11.902344 C 49.109375 11.886719 49.109375 11.871094 49.109375 11.855469 C 49.109375 11.351562 49.105469 10.851562 49.074219 10.351562 C 49.074219 10.332031 49.074219 10.316406 49.074219 10.296875 C 48.976562 8.660156 48.769531 7.023438 48.394531 5.429688 C 48.386719 5.390625 48.375 5.351562 48.367188 5.3125 C 48.015625 3.664062 48.015625 3.664062 47.425781 2.097656 C 47.351562 2.105469 47.292969 2.125 47.226562 2.15625 C 47.210938 2.160156 47.210938 2.160156 47.195312 2.167969 C 47.160156 2.183594 47.128906 2.199219 47.09375 2.214844 C 47.082031 2.21875 47.070312 2.226562 47.058594 2.230469 C 46.816406 2.34375 46.578125 2.460938 46.339844 2.578125 C 46.320312 2.585938 46.304688 2.597656 46.285156 2.605469 C 46.054688 2.71875 45.828125 2.84375 45.601562 2.96875 C 45.527344 3.011719 45.449219 3.054688 45.375 3.09375 C 45.191406 3.191406 45.011719 3.300781 44.832031 3.40625 C 44.785156 3.4375 44.738281 3.464844 44.691406 3.492188 C 44.652344 3.515625 44.613281 3.539062 44.574219 3.5625 C 44.546875 3.578125 44.519531 3.59375 44.492188 3.613281 C 44.347656 3.699219 44.203125 3.792969 44.058594 3.886719 C 44.042969 3.898438 44.03125 3.90625 44.015625 3.914062 C 43.925781 3.972656 43.839844 4.03125 43.75 4.089844 C 43.71875 4.109375 43.6875 4.128906 43.65625 4.148438 C 43.488281 4.261719 43.320312 4.371094 43.160156 4.492188 C 43.101562 4.535156 43.039062 4.578125 42.980469 4.621094 C 42.734375 4.792969 42.496094 4.96875 42.261719 5.152344 C 42.25 5.160156 42.238281 5.171875 42.226562 5.179688 C 42.085938 5.289062 41.945312 5.398438 41.808594 5.507812 C 41.738281 5.566406 41.667969 5.621094 41.597656 5.675781 C 41.519531 5.738281 41.445312 5.800781 41.371094 5.871094 C 41.328125 5.90625 41.289062 5.941406 41.246094 5.976562 C 41.167969 6.035156 41.097656 6.101562 41.023438 6.167969 C 40.980469 6.207031 40.933594 6.246094 40.886719 6.28125 C 40.828125 6.332031 40.769531 6.382812 40.71875 6.4375 C 40.691406 6.464844 40.664062 6.488281 40.632812 6.511719 C 40.570312 6.570312 40.503906 6.628906 40.441406 6.6875 C 40.429688 6.699219 40.421875 6.707031 40.410156 6.714844 C 40.363281 6.761719 40.3125 6.808594 40.265625 6.855469 C 40.230469 6.894531 40.191406 6.929688 40.152344 6.960938 C 40.078125 7.027344 40.007812 7.09375 39.941406 7.164062 C 39.925781 7.175781 39.914062 7.191406 39.898438 7.203125 C 39.871094 7.230469 39.84375 7.257812 39.816406 7.285156 C 39.777344 7.328125 39.734375 7.367188 39.691406 7.410156 C 39.664062 7.4375 39.640625 7.464844 39.613281 7.492188 C 39.601562 7.503906 39.585938 7.515625 39.574219 7.527344 C 39.507812 7.59375 39.445312 7.660156 39.382812 7.734375 C 39.351562 7.769531 39.320312 7.800781 39.289062 7.832031 C 39.234375 7.882812 39.183594 7.9375 39.136719 7.996094 C 39.09375 8.042969 39.050781 8.089844 39.007812 8.136719 C 38.9375 8.210938 38.867188 8.289062 38.800781 8.367188 C 38.792969 8.375 38.785156 8.382812 38.777344 8.390625 C 38.738281 8.4375 38.699219 8.484375 38.65625 8.53125 C 38.625 8.570312 38.589844 8.609375 38.554688 8.652344 C 38.476562 8.742188 38.398438 8.835938 38.320312 8.933594 C 38.292969 8.964844 38.265625 9 38.238281 9.035156 C 38.132812 9.164062 38.03125 9.292969 37.929688 9.425781 C 37.890625 9.480469 37.847656 9.535156 37.804688 9.589844 C 37.742188 9.671875 37.683594 9.753906 37.621094 9.835938 C 37.613281 9.847656 37.605469 9.855469 37.597656 9.867188 C 37.570312 9.90625 37.542969 9.945312 37.515625 9.984375 C 37.507812 9.992188 37.503906 10.003906 37.496094 10.011719 C 37.371094 10.183594 37.253906 10.359375 37.136719 10.535156 C 37.109375 10.578125 37.082031 10.617188 37.054688 10.660156 C 37.035156 10.6875 37.015625 10.714844 37 10.742188 C 36.992188 10.753906 36.984375 10.765625 36.976562 10.777344 C 36.925781 10.851562 36.875 10.929688 36.828125 11.007812 C 36.648438 10.988281 36.472656 10.964844 36.296875 10.941406 C 36.226562 10.929688 36.15625 10.921875 36.085938 10.914062 C 36.070312 10.910156 36.054688 10.90625 36.039062 10.90625 C 35.136719 10.78125 34.234375 10.660156 33.324219 10.578125 C 33.28125 10.574219 33.234375 10.570312 33.1875 10.566406 C 32.488281 10.5 31.789062 10.453125 31.085938 10.414062 C 31.054688 10.414062 31.054688 10.414062 31.023438 10.414062 C 29.996094 10.355469 28.957031 10.359375 27.929688 10.414062 C 27.898438 10.417969 27.898438 10.417969 27.867188 10.417969 C 26.542969 10.488281 25.222656 10.609375 22.847656 10.917969 C 22.835938 10.921875 22.824219 10.921875 22.8125 10.925781 C 22.742188 10.933594 22.671875 10.945312 22.601562 10.953125 C 22.570312 10.957031 22.542969 10.964844 22.511719 10.96875 C 22.398438 10.984375 22.285156 11.003906 22.171875 11.023438 C 22.167969 11.011719 22.164062 11 22.160156 10.988281 C 22.144531 10.949219 22.125 10.914062 22.101562 10.878906 C 22.089844 10.867188 22.082031 10.851562 22.074219 10.839844 C 22.0625 10.820312 22.0625 10.820312 22.046875 10.800781 C 22.039062 10.785156 22.027344 10.773438 22.019531 10.757812 C 22 10.726562 21.980469 10.699219 21.960938 10.667969 C 21.929688 10.625 21.898438 10.578125 21.871094 10.535156 C 21.703125 10.285156 21.53125 10.035156 21.351562 9.792969 C 21.34375 9.78125 21.332031 9.769531 21.324219 9.753906 C 21.113281 9.472656 20.894531 9.195312 20.671875 8.925781 C 20.648438 8.894531 20.625 8.867188 20.597656 8.835938 C 20.464844 8.671875 20.328125 8.511719 20.183594 8.355469 C 20.15625 8.324219 20.125 8.289062 20.097656 8.257812 C 19.980469 8.125 19.863281 7.996094 19.746094 7.867188 C 19.730469 7.851562 19.710938 7.832031 19.695312 7.8125 C 19.519531 7.621094 19.332031 7.433594 19.148438 7.25 C 19.105469 7.207031 19.0625 7.164062 19.019531 7.121094 C 18.984375 7.089844 18.953125 7.054688 18.917969 7.023438 C 18.902344 7.007812 18.886719 6.992188 18.871094 6.976562 C 18.792969 6.894531 18.710938 6.816406 18.625 6.742188 C 18.597656 6.71875 18.570312 6.691406 18.542969 6.664062 C 18.496094 6.617188 18.445312 6.574219 18.394531 6.53125 C 18.347656 6.488281 18.300781 6.445312 18.253906 6.398438 C 18.175781 6.328125 18.101562 6.257812 18.019531 6.191406 C 18.011719 6.183594 18.003906 6.179688 17.996094 6.171875 C 17.949219 6.132812 17.902344 6.089844 17.855469 6.050781 C 17.816406 6.015625 17.777344 5.984375 17.738281 5.949219 C 17.625 5.851562 17.511719 5.757812 17.394531 5.664062 C 17.375 5.648438 17.355469 5.632812 17.335938 5.613281 C 17.136719 5.453125 16.9375 5.296875 16.738281 5.144531 C 16.714844 5.125 16.691406 5.109375 16.667969 5.089844 C 16.503906 4.964844 16.339844 4.84375 16.171875 4.722656 C 16.128906 4.691406 16.085938 4.660156 16.042969 4.628906 C 15.597656 4.308594 15.136719 4.003906 14.667969 3.710938 C 14.65625 3.703125 14.640625 3.695312 14.628906 3.6875 C 14.414062 3.550781 14.199219 3.421875 13.980469 3.296875 C 13.964844 3.285156 13.949219 3.277344 13.929688 3.265625 C 13.699219 3.132812 13.464844 3 13.230469 2.875 C 13.183594 2.851562 13.140625 2.828125 13.097656 2.804688 C 12.65625 2.566406 12.210938 2.34375 11.75 2.148438 C 11.738281 2.140625 11.726562 2.136719 11.714844 2.132812 C 11.664062 2.109375 11.628906 2.097656 11.574219 2.097656 Z M 11.574219 2.097656 "/>
<path style=" stroke:none;fill-rule:nonzero;fill:rgb(8.627451%,8.627451%,8.627451%);fill-opacity:1;" d="M 38.765625 31.664062 C 39.925781 31.664062 41.085938 31.664062 42.277344 31.664062 C 42.265625 31.824219 42.25 31.980469 42.234375 32.140625 C 42.234375 32.160156 42.234375 32.160156 42.230469 32.183594 C 42.203125 32.457031 42.175781 32.734375 42.144531 33.007812 C 42.117188 33.246094 42.09375 33.484375 42.070312 33.71875 C 42.042969 33.996094 42.011719 34.269531 41.984375 34.546875 C 41.957031 34.78125 41.933594 35.019531 41.910156 35.257812 C 41.886719 35.511719 41.855469 35.769531 41.828125 36.023438 C 41.800781 36.277344 41.773438 36.527344 41.75 36.78125 C 41.722656 37.074219 41.691406 37.363281 41.660156 37.65625 C 41.621094 37.992188 41.585938 38.332031 41.554688 38.667969 C 41.527344 38.925781 41.503906 39.183594 41.472656 39.441406 C 41.445312 39.683594 41.421875 39.929688 41.394531 40.175781 C 41.371094 40.441406 41.34375 40.710938 41.3125 40.976562 C 41.285156 41.222656 41.261719 41.464844 41.234375 41.710938 C 41.210938 41.980469 41.183594 42.246094 41.152344 42.511719 C 41.125 42.757812 41.101562 43.003906 41.074219 43.246094 C 41.050781 43.503906 41.023438 43.761719 40.996094 44.015625 C 40.964844 44.285156 40.9375 44.554688 40.910156 44.828125 C 40.882812 45.125 40.851562 45.425781 40.816406 45.722656 C 40.789062 45.984375 40.761719 46.246094 40.734375 46.511719 C 40.710938 46.773438 40.679688 47.035156 40.652344 47.296875 C 40.625 47.535156 40.601562 47.769531 40.578125 48.007812 C 40.550781 48.285156 40.523438 48.558594 40.492188 48.832031 C 40.464844 49.070312 40.441406 49.308594 40.417969 49.542969 C 40.390625 49.820312 40.363281 50.09375 40.332031 50.371094 C 40.304688 50.605469 40.28125 50.84375 40.257812 51.078125 C 40.230469 51.355469 40.203125 51.628906 40.171875 51.90625 C 40.144531 52.140625 40.121094 52.378906 40.097656 52.617188 C 40.070312 52.890625 40.042969 53.164062 40.011719 53.441406 C 39.980469 53.710938 39.953125 53.984375 39.925781 54.257812 C 39.90625 54.464844 39.882812 54.671875 39.855469 54.878906 C 38.699219 54.878906 37.539062 54.878906 36.347656 54.878906 C 36.363281 54.550781 36.363281 54.550781 36.378906 54.40625 C 36.382812 54.390625 36.382812 54.375 36.382812 54.359375 C 36.390625 54.304688 36.394531 54.25 36.402344 54.195312 C 36.40625 54.15625 36.410156 54.117188 36.414062 54.078125 C 36.421875 53.992188 36.433594 53.90625 36.441406 53.820312 C 36.453125 53.691406 36.46875 53.566406 36.480469 53.4375 C 36.503906 53.222656 36.523438 53.011719 36.546875 52.796875 C 36.570312 52.582031 36.59375 52.371094 36.613281 52.15625 C 36.617188 52.136719 36.617188 52.136719 36.617188 52.117188 C 36.625 52.0625 36.628906 52.011719 36.636719 51.957031 C 36.6875 51.464844 36.738281 50.972656 36.789062 50.484375 C 36.835938 50.019531 36.886719 49.558594 36.933594 49.097656 C 36.9375 49.085938 36.9375 49.070312 36.9375 49.054688 C 36.945312 48.984375 36.953125 48.914062 36.960938 48.839844 C 36.960938 48.828125 36.964844 48.8125 36.964844 48.796875 C 36.96875 48.769531 36.972656 48.742188 36.972656 48.714844 C 37.023438 48.257812 37.070312 47.800781 37.117188 47.34375 C 37.132812 47.210938 37.144531 47.078125 37.160156 46.945312 C 37.1875 46.667969 37.21875 46.386719 37.246094 46.109375 C 37.257812 45.992188 37.269531 45.878906 37.28125 45.761719 C 37.332031 45.28125 37.382812 44.804688 37.4375 44.324219 C 37.460938 44.117188 37.480469 43.910156 37.5 43.703125 C 37.503906 43.675781 37.503906 43.648438 37.507812 43.617188 C 37.507812 43.605469 37.511719 43.59375 37.511719 43.582031 C 37.535156 43.347656 37.5625 43.113281 37.585938 42.878906 C 37.613281 42.640625 37.636719 42.40625 37.660156 42.167969 C 37.6875 41.894531 37.714844 41.617188 37.746094 41.34375 C 37.773438 41.105469 37.796875 40.867188 37.820312 40.632812 C 37.847656 40.355469 37.878906 40.082031 37.90625 39.808594 C 37.933594 39.570312 37.957031 39.332031 37.980469 39.097656 C 38.003906 38.839844 38.03125 38.582031 38.0625 38.328125 C 38.09375 38.046875 38.121094 37.769531 38.148438 37.488281 C 38.167969 37.285156 38.1875 37.082031 38.210938 36.878906 C 38.222656 36.78125 38.230469 36.679688 38.242188 36.578125 C 38.246094 36.5625 38.246094 36.5625 38.246094 36.546875 C 38.273438 36.296875 38.296875 36.046875 38.324219 35.792969 C 38.328125 35.769531 38.328125 35.75 38.332031 35.726562 C 38.339844 35.632812 38.351562 35.539062 38.359375 35.445312 C 38.378906 35.269531 38.398438 35.09375 38.414062 34.917969 C 38.417969 34.898438 38.417969 34.898438 38.417969 34.878906 C 38.429688 34.773438 38.441406 34.667969 38.453125 34.566406 C 38.460938 34.472656 38.472656 34.378906 38.480469 34.285156 C 38.484375 34.273438 38.484375 34.257812 38.484375 34.246094 C 38.507812 34.027344 38.53125 33.8125 38.554688 33.59375 C 38.578125 33.367188 38.601562 33.144531 38.625 32.917969 C 38.636719 32.78125 38.652344 32.644531 38.667969 32.503906 C 38.675781 32.410156 38.6875 32.316406 38.695312 32.222656 C 38.703125 32.171875 38.707031 32.117188 38.714844 32.0625 C 38.71875 32.003906 38.726562 31.945312 38.730469 31.886719 C 38.734375 31.871094 38.734375 31.851562 38.738281 31.835938 C 38.738281 31.8125 38.738281 31.8125 38.742188 31.789062 C 38.742188 31.773438 38.746094 31.761719 38.746094 31.746094 C 38.75 31.710938 38.75 31.710938 38.765625 31.664062 Z M 38.765625 31.664062 "/>
<path style=" stroke:none;fill-rule:nonzero;fill:rgb(8.627451%,8.627451%,8.627451%);fill-opacity:1;" d="M 16.738281 31.664062 C 17.898438 31.664062 19.054688 31.664062 20.25 31.664062 C 20.445312 33.546875 20.445312 33.546875 20.496094 34.0625 C 20.523438 34.3125 20.546875 34.566406 20.578125 34.816406 C 20.597656 35.003906 20.617188 35.195312 20.636719 35.382812 C 20.648438 35.484375 20.660156 35.589844 20.667969 35.691406 C 20.671875 35.703125 20.671875 35.714844 20.671875 35.722656 C 20.699219 35.996094 20.730469 36.265625 20.757812 36.539062 C 20.761719 36.578125 20.765625 36.621094 20.769531 36.660156 C 20.785156 36.789062 20.796875 36.917969 20.8125 37.042969 C 20.832031 37.242188 20.851562 37.441406 20.871094 37.636719 C 20.875 37.671875 20.878906 37.703125 20.882812 37.734375 C 20.886719 37.78125 20.894531 37.828125 20.898438 37.875 C 20.917969 38.054688 20.933594 38.234375 20.953125 38.410156 C 20.957031 38.4375 20.957031 38.4375 20.957031 38.460938 C 20.984375 38.722656 21.011719 38.984375 21.039062 39.25 C 21.070312 39.523438 21.097656 39.792969 21.125 40.066406 C 21.140625 40.21875 21.160156 40.371094 21.175781 40.523438 C 21.191406 40.691406 21.210938 40.863281 21.226562 41.03125 C 21.230469 41.046875 21.230469 41.058594 21.230469 41.074219 C 21.273438 41.484375 21.316406 41.894531 21.355469 42.308594 C 21.378906 42.515625 21.398438 42.722656 21.421875 42.929688 C 21.445312 43.128906 21.46875 43.328125 21.488281 43.527344 C 21.496094 43.628906 21.507812 43.734375 21.519531 43.835938 C 21.519531 43.847656 21.519531 43.855469 21.523438 43.867188 C 21.550781 44.140625 21.578125 44.410156 21.609375 44.683594 C 21.613281 44.722656 21.617188 44.765625 21.621094 44.804688 C 21.632812 44.933594 21.648438 45.0625 21.660156 45.1875 C 21.679688 45.386719 21.703125 45.585938 21.722656 45.78125 C 21.726562 45.8125 21.730469 45.847656 21.730469 45.878906 C 21.738281 45.925781 21.742188 45.972656 21.746094 46.019531 C 21.765625 46.199219 21.785156 46.378906 21.804688 46.554688 C 21.804688 46.582031 21.804688 46.582031 21.808594 46.605469 C 21.835938 46.867188 21.863281 47.128906 21.890625 47.394531 C 21.917969 47.664062 21.949219 47.9375 21.976562 48.210938 C 21.992188 48.363281 22.007812 48.515625 22.023438 48.667969 C 22.042969 48.835938 22.058594 49.007812 22.078125 49.175781 C 22.078125 49.191406 22.078125 49.203125 22.082031 49.21875 C 22.125 49.628906 22.167969 50.039062 22.207031 50.453125 C 22.226562 50.648438 22.246094 50.84375 22.269531 51.042969 C 22.273438 51.066406 22.273438 51.089844 22.277344 51.113281 C 22.277344 51.125 22.28125 51.136719 22.28125 51.148438 C 22.300781 51.324219 22.320312 51.5 22.335938 51.671875 C 22.347656 51.777344 22.359375 51.878906 22.367188 51.980469 C 22.371094 51.996094 22.371094 51.996094 22.371094 52.011719 C 22.398438 52.261719 22.425781 52.507812 22.449219 52.753906 C 22.460938 52.847656 22.46875 52.941406 22.480469 53.035156 C 22.480469 53.058594 22.480469 53.058594 22.484375 53.078125 C 22.488281 53.132812 22.496094 53.1875 22.5 53.238281 C 22.515625 53.390625 22.535156 53.542969 22.550781 53.695312 C 22.5625 53.820312 22.574219 53.941406 22.589844 54.066406 C 22.597656 54.132812 22.601562 54.195312 22.609375 54.261719 C 22.617188 54.320312 22.621094 54.378906 22.628906 54.441406 C 22.632812 54.472656 22.636719 54.503906 22.640625 54.535156 C 22.652344 54.652344 22.65625 54.765625 22.652344 54.878906 C 22.199219 54.878906 21.742188 54.878906 21.289062 54.878906 C 21.078125 54.882812 20.863281 54.882812 20.652344 54.882812 C 20.46875 54.882812 20.285156 54.882812 20.101562 54.882812 C 20.003906 54.882812 19.90625 54.882812 19.808594 54.882812 C 19.714844 54.882812 19.625 54.882812 19.53125 54.882812 C 19.5 54.882812 19.464844 54.882812 19.429688 54.882812 C 19.386719 54.882812 19.339844 54.882812 19.292969 54.882812 C 19.28125 54.882812 19.265625 54.882812 19.253906 54.882812 C 19.160156 54.882812 19.160156 54.882812 19.144531 54.863281 C 19.136719 54.832031 19.132812 54.800781 19.132812 54.765625 C 19.128906 54.746094 19.125 54.726562 19.125 54.703125 C 19.121094 54.679688 19.117188 54.65625 19.117188 54.632812 C 19.113281 54.609375 19.113281 54.585938 19.109375 54.5625 C 19.101562 54.496094 19.09375 54.429688 19.089844 54.363281 C 19.082031 54.308594 19.078125 54.253906 19.070312 54.199219 C 19.027344 53.808594 18.988281 53.417969 18.949219 53.023438 C 18.929688 52.8125 18.90625 52.597656 18.882812 52.382812 C 18.851562 52.128906 18.828125 51.871094 18.804688 51.617188 C 18.777344 51.371094 18.753906 51.125 18.726562 50.878906 C 18.695312 50.613281 18.667969 50.347656 18.644531 50.078125 C 18.617188 49.835938 18.59375 49.589844 18.566406 49.34375 C 18.535156 49.078125 18.507812 48.8125 18.484375 48.542969 C 18.457031 48.296875 18.433594 48.054688 18.40625 47.808594 C 18.375 47.539062 18.347656 47.265625 18.320312 46.996094 C 18.292969 46.699219 18.261719 46.398438 18.226562 46.101562 C 18.199219 45.839844 18.171875 45.574219 18.144531 45.3125 C 18.121094 45.070312 18.09375 44.828125 18.070312 44.585938 C 18.039062 44.316406 18.011719 44.046875 17.984375 43.777344 C 17.960938 43.535156 17.933594 43.289062 17.910156 43.046875 C 17.878906 42.777344 17.851562 42.511719 17.824219 42.242188 C 17.800781 41.996094 17.773438 41.753906 17.75 41.511719 C 17.71875 41.242188 17.691406 40.972656 17.664062 40.707031 C 17.640625 40.460938 17.613281 40.21875 17.585938 39.976562 C 17.558594 39.722656 17.53125 39.472656 17.507812 39.21875 C 17.480469 38.925781 17.449219 38.636719 17.417969 38.34375 C 17.382812 38.007812 17.34375 37.667969 17.3125 37.332031 C 17.285156 37.074219 17.261719 36.816406 17.230469 36.558594 C 17.203125 36.304688 17.175781 36.046875 17.152344 35.792969 C 17.128906 35.546875 17.101562 35.300781 17.074219 35.054688 C 17.042969 34.789062 17.019531 34.523438 16.992188 34.257812 C 16.964844 34 16.941406 33.742188 16.910156 33.488281 C 16.878906 33.199219 16.851562 32.910156 16.820312 32.621094 C 16.816406 32.582031 16.8125 32.542969 16.808594 32.503906 C 16.808594 32.484375 16.804688 32.464844 16.804688 32.445312 C 16.792969 32.347656 16.785156 32.253906 16.773438 32.15625 C 16.769531 32.136719 16.769531 32.121094 16.765625 32.101562 C 16.761719 32.066406 16.757812 32.03125 16.753906 31.996094 C 16.738281 31.882812 16.738281 31.78125 16.738281 31.664062 Z M 16.738281 31.664062 "/>
<path style=" stroke:none;fill-rule:nonzero;fill:rgb(8.627451%,8.627451%,8.627451%);fill-opacity:1;" d="M 27.753906 31.664062 C 28.90625 31.664062 30.058594 31.664062 31.246094 31.664062 C 31.246094 39.324219 31.246094 46.988281 31.246094 54.878906 C 30.09375 54.878906 28.941406 54.878906 27.753906 54.878906 C 27.753906 47.21875 27.753906 39.558594 27.753906 31.664062 Z M 27.753906 31.664062 "/>
<path style=" stroke:none;fill-rule:nonzero;fill:rgb(96.862745%,74.117647%,45.490196%);fill-opacity:1;" d="M 39.441406 17.777344 C 39.453125 17.777344 39.46875 17.78125 39.484375 17.78125 C 39.847656 17.835938 40.195312 17.933594 40.53125 18.078125 C 40.542969 18.085938 40.554688 18.089844 40.570312 18.097656 C 40.859375 18.222656 41.128906 18.386719 41.378906 18.574219 C 41.390625 18.582031 41.398438 18.589844 41.40625 18.597656 C 41.535156 18.691406 41.652344 18.792969 41.765625 18.902344 C 41.804688 18.9375 41.84375 18.972656 41.882812 19.003906 C 41.972656 19.082031 42.054688 19.167969 42.132812 19.257812 C 42.15625 19.285156 42.183594 19.316406 42.210938 19.347656 C 42.863281 20.078125 43.46875 21.117188 43.59375 22.097656 C 43.597656 22.117188 43.597656 22.117188 43.597656 22.140625 C 43.660156 22.636719 43.5625 23.144531 43.417969 23.621094 C 43.414062 23.636719 43.410156 23.652344 43.40625 23.667969 C 43.355469 23.828125 43.289062 23.972656 43.222656 24.128906 C 41.96875 24.128906 40.714844 24.128906 39.425781 24.128906 C 39.472656 23.726562 39.472656 23.726562 39.492188 23.574219 C 39.570312 22.84375 39.574219 22.085938 39.488281 21.359375 C 39.484375 21.328125 39.484375 21.328125 39.480469 21.300781 C 39.359375 20.097656 39.359375 20.097656 38.765625 19.09375 C 38.691406 19.039062 38.617188 19.019531 38.527344 19.023438 C 38.347656 19.074219 38.246094 19.222656 38.160156 19.375 C 37.542969 20.5 37.523438 22.0625 37.628906 23.3125 C 37.628906 23.328125 37.632812 23.34375 37.632812 23.359375 C 37.648438 23.539062 37.667969 23.714844 37.691406 23.890625 C 37.695312 23.90625 37.695312 23.921875 37.699219 23.9375 C 37.699219 23.949219 37.703125 23.960938 37.703125 23.976562 C 37.710938 24.027344 37.707031 24.078125 37.707031 24.128906 C 36.492188 24.128906 35.273438 24.128906 34.019531 24.128906 C 34.019531 23.9375 34.023438 23.75 34.035156 23.5625 C 34.035156 23.550781 34.035156 23.539062 34.035156 23.527344 C 34.125 22.050781 34.464844 20.492188 35.703125 19.039062 C 35.714844 19.03125 35.722656 19.019531 35.734375 19.007812 C 35.800781 18.941406 35.871094 18.878906 35.945312 18.820312 C 35.976562 18.796875 36.007812 18.773438 36.035156 18.75 C 36.71875 18.171875 37.632812 17.867188 38.511719 17.761719 C 38.527344 17.757812 38.546875 17.753906 38.5625 17.753906 C 38.851562 17.726562 39.152344 17.734375 39.441406 17.777344 Z M 39.441406 17.777344 "/>
<path style=" stroke:none;fill-rule:nonzero;fill:rgb(96.862745%,74.117647%,45.490196%);fill-opacity:1;" d="M 20.601562 17.777344 C 20.613281 17.777344 20.625 17.777344 20.636719 17.78125 C 21.609375 17.90625 22.558594 18.328125 23.261719 19.007812 C 23.273438 19.015625 23.28125 19.023438 23.289062 19.035156 C 23.40625 19.148438 23.515625 19.261719 23.617188 19.390625 C 23.636719 19.417969 23.636719 19.417969 23.65625 19.441406 C 23.960938 19.832031 24.1875 20.265625 24.386719 20.71875 C 24.394531 20.738281 24.402344 20.757812 24.410156 20.777344 C 24.554688 21.125 24.65625 21.492188 24.738281 21.855469 C 24.742188 21.875 24.746094 21.894531 24.75 21.910156 C 24.863281 22.410156 24.925781 22.914062 24.960938 23.425781 C 24.964844 23.445312 24.964844 23.445312 24.964844 23.46875 C 24.980469 23.6875 24.980469 23.90625 24.980469 24.128906 C 23.761719 24.128906 22.546875 24.128906 21.292969 24.128906 C 21.300781 24.023438 21.308594 23.917969 21.324219 23.8125 C 21.433594 23.011719 21.445312 22.195312 21.355469 21.390625 C 21.355469 21.378906 21.351562 21.367188 21.351562 21.355469 C 21.234375 20.117188 21.234375 20.117188 20.628906 19.089844 C 20.546875 19.039062 20.476562 19.015625 20.378906 19.023438 C 20.203125 19.078125 20.105469 19.230469 20.023438 19.382812 C 20.011719 19.402344 20.003906 19.421875 19.992188 19.441406 C 19.984375 19.453125 19.976562 19.46875 19.96875 19.484375 C 19.761719 19.902344 19.667969 20.378906 19.59375 20.832031 C 19.589844 20.84375 19.589844 20.855469 19.585938 20.867188 C 19.554688 21.046875 19.53125 21.226562 19.511719 21.410156 C 19.507812 21.449219 19.503906 21.488281 19.5 21.527344 C 19.46875 21.839844 19.460938 22.152344 19.460938 22.46875 C 19.460938 22.488281 19.460938 22.507812 19.460938 22.527344 C 19.460938 23.027344 19.503906 23.519531 19.570312 24.019531 C 19.574219 24.0625 19.574219 24.0625 19.574219 24.128906 C 18.320312 24.128906 17.066406 24.128906 15.777344 24.128906 C 15.625 23.753906 15.625 23.753906 15.582031 23.601562 C 15.574219 23.585938 15.570312 23.566406 15.566406 23.550781 C 15.460938 23.207031 15.402344 22.867188 15.402344 22.507812 C 15.402344 22.46875 15.402344 22.425781 15.402344 22.386719 C 15.402344 22.152344 15.425781 21.921875 15.5 21.699219 C 15.503906 21.6875 15.507812 21.671875 15.511719 21.660156 C 15.726562 20.984375 16.039062 20.328125 16.464844 19.761719 C 16.472656 19.75 16.480469 19.742188 16.488281 19.730469 C 16.53125 19.671875 16.578125 19.609375 16.625 19.550781 C 16.636719 19.539062 16.648438 19.523438 16.660156 19.507812 C 16.808594 19.328125 16.96875 19.160156 17.132812 18.996094 C 17.144531 18.980469 17.160156 18.96875 17.171875 18.953125 C 17.269531 18.859375 17.371094 18.769531 17.476562 18.6875 C 17.488281 18.679688 17.496094 18.671875 17.507812 18.660156 C 18.390625 17.976562 19.484375 17.621094 20.601562 17.777344 Z M 20.601562 17.777344 "/>
</g>
</svg>
